<svg xmlns="http://www.w3.org/2000/svg" xmlns:xlink="http://www.w3.org/1999/xlink" version="1.1" x="0px" y="0px" viewBox="0 0 1000 1250" style="enable-background:new 0 0 1000 1000;" xml:space="preserve"><g><path d="M352.9239197,935.5946045C323.2270508,794.7055054,174.8764343,768.276001,172.4721832,597.5179443   c-11.9737244,34.0646973-16.559967,69.2277222-14.716507,106.3531494   c-42.5559692-72.3221436-52.091774-205.6383667,33.6948853-313.9644775   c-28.9186859,9.4269104-60.7007446,51.050415-87.1447525,114.1296387   c-10.68013-68.122345,22.206459-208.218689,114.0237808-300.857666   c-36.5008392,14.6577301-68.699173,35.7868805-97.8256836,62.4251251   C131.4333649,166.4342194,228.3217316,108.8034592,318.20401,93.0140991   c-26.5515747-7.3162155-55.303833-10.3791046-84.4175873-13.3718262   c63.8088531-19.0755997,129.0441132-33.2546577,193.8022614-48.7277069   c69.9632874-15.4875879,148.6176758-6.3465767,193.6381836,55.8582153   c7.7155151-17.4731979,3.0899658-39.7387123-16.0667725-74.9251022   c49.0874634,15.380559,90.7686768,44.7183723,112.9865723,92.321228c2.822937,6.0448608,3.3693237,11.3027954,0.5517578,17.5914993   c-4.0858765,9.119751-7.1341553,18.7043457-11.1928101,29.6174316   c65.9993896-63.4178772,164.9128418,6.4096375,116.112915,88.1987457   c-7.630249,11.7240753-17.7095337,21.8558502-26.0846558,32.0092621   c43.5310059,31.4408264,72.1026001,70.1953125,81.7456665,123.9901428   c6.2175903,32.6984863,13.7735596,65.0935059,18.3508911,98.0228882   c-18.6355591-28.7004395-39.6119995-53.2843933-70.6599731-67.4659424   c89.1791992,75.6870117,63.0820923,176.4840698,27.4887695,272.5203857   c-5.6378174-37.1699219-14.2543335-73.1655273-34.3887939-106.3323364   c-2.8775024,7.97229-9.4511108,14.2248535-4.9490967,22.2531738   c31.689209,68.234436,19.1536255,150.8739624-35.5700684,203.6536255   c-29.1053467,26.5780029-58.9692993,52.3264771-89.3733521,77.8563232   c14.7147217-29.8798828,23.9041748-60.9387817,24.9849243-94.3786011   c-13.6085815,27.8339233-35.3510742,49.916687-59.5115967,68.6138306   c-51.6350708,41.0958252-91.5010986,60.9189453-134.5273438,117.8330078   c9.5370483-62.6279297,0.7110596-120.9812622-24.7271118-177.1109009   c-3.2235718,39.5460205-19.6690063,74.3886719-49.6207886,101.8519897   c11.4725037-45.6405029,4.0705872-87.4672852-14.4387817-129.9175415   C428.7553101,846.5021973,399.1295166,894.6199951,352.9239197,935.5946045z M433.6333313,322.7190552   c0.2043457,0.4018555,0.4086609,0.8037109,0.6129456,1.2055969   c-79.8562927,71.6452637-92.3041077,184.5594788-47.8302917,279.0478821   c16.1655884,35.6176147,41.0811768,65.1170654,68.2220154,92.8019409   c60.303894,56.7533569,93.6868286,136.425415,92.6704102,219.1116333   c11.4763794-10.3734741,22.6263428-20.6765137,34.0205078-30.7017822   c48.3284302-43.8093872,17.6201172-116.3352661-8.3875732-164.2339478   c-35.5056763-66.0938721-106.0406189-100.560791-147.6950073-161.7438965   c-31.9565735-43.364624-44.8296814-102.6270447-18.3522034-152.1588745   c-11.2248535,82.387085,52.8313599,156.5498047,123.8025208,188.9643555   c-6.3979492-61.2522583,20.0117188-104.9901123,36.7346802-117.2993774   c-4.9238892,8.3607178-12.4215088,18.9169006-17.711731,30.4827271   c-35.703125,74.9160767,48.2443237,147.3670654,120.8823853,120.6705933   c49.2739258-13.241272,85.041687-70.0206299,22.8371582-95.8195801   c-7.3918457-5.6646729-14.7029419-11.5780029-21.1981812-18.2192383   c-4.0506592-4.1416931-5.0123291-10.0345764-2.8796387-16.6074829   c19.3394165,11.9299927,33.3834839-2.3745728,53.9116821,3.7196655   c16.159729,5.1224365,24.6248169,15.9197998,42.7984009,5.4085999c4.4850464-2.6061707,9.8672485-4.4751587,15.0081787-4.973938   c9.3386841-0.9058838,15.170105,6.7584839,12.9758301,15.9015198   c-2.2961426,11.9927368-13.8093262,16.6771851-22.2087402,23.704834   c-6.1427612,5.852478-11.4786377,12.6046753-17.9088745,18.0933228   c-20.6795044,17.6511841-21.5299683,49.9240723-1.4067993,68.2908936c3.7419434,3.4152832,7.5667725,6.7396851,12.175354,10.836792   c5.6724854-9.7797852,11.1959229-19.3023071,16.4142456-28.2990112   c-6.8745728-4.531311-12.9216309-8.5172729-20.3343506-13.4032593c26.3060913-5.3046265,31.0360107-9.6550903,31.0870972-26.630127   c-7.9755249,2.1202393-16.041687,4.2645264-24.1077881,6.4088135c0.5808105-2.2542725,1.6890869-3.1533813,2.8231201-4.0184326   c14.0744629-10.7357788,24.0646973-24.4036255,28.6185303-41.5674438   c2.8397827-10.703064,4.0570679-21.6182556-3.0878296-31.4629211   c-24.0462036-33.1329956-47.6271973-66.6234436-72.4898071-99.1330261   c-8.4077759-10.9936218-8.2685547-20.8219604-3.1678467-32.0541382   c10.1382446-18.4841919,16.5050659-29.7505188,1.093811-47.8807983   c14.4398804,1.8803406,21.0762329,11.9854126,21.852417,33.0097961c8.4868164,2.5536499,16.4025879,0.1100159,24.791748-4.0151978   c-2.5118408,7.8580627-7.3973999,12.0556946-13.3450928,15.390686c-1.532959,0.8595276-3.7424316,2.112915-3.9627075,3.4598083   c-1.7578125,10.7536621-8.1802979,18.0611877-17.4858398,23.8327942   c13.0045166,18.39505,25.7174683,36.3776855,38.927124,55.0628357c1.5049438-33.6242065,3.0354004-66.1414795,4.2648315-98.670166   c0.0921021-2.4344788-1.5259399-5.2851257-3.104126-7.3710022c-7.2421875-9.5726624-14.1841431-19.46698-22.2998047-28.2623596   c-29.4138794-31.5960693-11.5841675-45.3949585-22.7036133-60.0683594   c-13.5875244-12.0617523-27.9846191-23.2105408-44.0640869-36.2928314   c-14.2269287,15.2802734-28.0184326,30.0929108-41.8874512,44.9887848   c-48.6219482-60.3630981-127.1334229-61.7853394-161.1876831-42.0127716   c15.0967102,31.2093353-5.7191467,54.8177338-34.0927124,67.108078   c-21.6861267,9.7028198-43.4369202,19.2902222-65.4081116,28.3268433   c-181.3580322,71.4447327-244.6896973,305.8461304-98.6522827,445.1090698   c20.0829773,21.4453735,40.8388672,42.4195557,55.9103699,67.8731079   c9.4338379,15.9324341,17.3919067,32.7387085,25.7055664,48.5692139   c46.3136292-70.4747314,21.6482849-155.1269531-17.0934753-223.758728   C284.1282043,538.8623047,310.0919189,384.0160828,433.6333313,322.7190552z M639.8488159,233.994751   c38.2401123-42.7309723,66.4501953-125.8837585,10.3452148-165.8031006   c7.3146973,36.997879-0.3330688,73.2272797-24.6903076,102.6270447   c-10.074646-86.8387756-106.0582275-128.685379-184.1958313-111.4506226   c46.5524597,7.5535965,102.2096863,25.4907684,118.0918884,74.8009491   c-62.6713867-45.642952-130.9570007-68.9110336-208.5461426-59.3077698   c57.3816528,12.6676636,110.0293884,36.4858475,154.8769226,74.8149719c1.9878845,1.6502533,4.826355,3.3591003,7.2115784,3.282074   C567.1378784,152.0563202,612.5610962,189.2698059,639.8488159,233.994751z M644.1105957,717.7880249   c1.1377563-17.9848633,2.7684937-23.4642944,8.892395-30.2883911c16.8668213,33.3538818,50.59729,47.2149658,73.6686401,10.5593872   c1.6247559,4.6975708,3.116394,9.0101318,4.7901611,13.8494873c16.0177002-15.1975098,32.5443115-41.9848633,18.4121704-63.4564209   c-10.744812-12.914978-24.5339966-19.6796875-41.4041138-16.5601196   c-8.4836426,1.5687256-16.7536621,5.1002808-24.6821899,8.7070923   c-20.5267334,9.3378906-41.8375854,12.2520752-63.9953003,8.8460083   c-14.0361938-2.1577759-14.1325073-2.3392334-18.5866699,11.3557739   c-4.6224365,14.3121338-2.010376,28.4542847,7.6800537,41.4266357   c1.4174805-11.5731201,5.2054443-20.3612061,14.0939331-27.5688477   C623.2214355,692.7648315,631.6809082,705.6039429,644.1105957,717.7880249z M382.132782,202.1161041   c-32.4440918,34.444458,31.3554688,57.58638,58.480835,46.3829346c17.9055481-4.532959,14.8972473-16.7087555,5.0524902-28.5454712   c-30.3077087-41.5148926-116.0327759-68.3765564-136.0932007-4.5662689   c-8.66922,30.0590668,5.5608215,70.2874146,31.3474731,88.1703796c1.7746582,1.2307129,4.6860046,2.4852295,6.3938904,1.866333   c8.134552-2.9475098,16.035675-6.5395203,25.3964539-10.4820557c-16.665741-5.2395325-25.8225403-15.4629517-30.0413513-29.0081177   c3.8026123-0.7286377,8.5037537-0.2736511,10.4864197-2.3788757c2.113739-2.2443237,1.938446-6.8888245,2.203186-10.5261536   c0.1304932-1.7928772-1.0283203-3.6692963-1.5546265-5.5218811   C348.0560608,228.0180206,359.0025635,201.6249084,382.132782,202.1161041z M758.8885498,279.7756042   c31.5604858-17.7160034,56.0913086-49.9951019,56.3726196-86.8608246   c-0.15271-19.6670227-13.1969604-33.7222137-32.5426636-35.7772369   c-37.8462524-7.0374146-99.4736328,53.5219116-62.7830811,60.571106   c23.8261719,4.0452728,57.9960327-11.7423248,47.013855-40.1931458   c21.9351807,3.225769,15.9130859,34.3191223,7.3863525,48.3506165c-4.2694092,8.3168488-3.0300903,12.1958466,6.0930176,16.9142303   c-9.0698242,9.3566589-17.736145,18.2971039-27.12323,27.9810028   C754.5309448,272.7400513,756.6199341,276.1127319,758.8885498,279.7756042z M452.3141785,168.6621857   c-92.375885-74.5388565-223.5307159-56.2507782-284.4295654,35.2331238   C255.3006897,139.8258209,350.2872925,130.6132355,452.3141785,168.6621857z M746.7810059,810.2838135   c51.7557983-42.8363647,68.0535889-108.4681396,49.6397095-167.8834229   c-5.6021729,9.2866821-11.7386475,12.2339478-9.7140503,24.352478   c2.9438477,25.1350098-3.7478638,47.4430542-21.7034302,66.0106201c-2.375,2.4559937-3.8311157,6.401062-4.4239502,9.8762817   C756.4703979,765.7279663,755.5390015,787.9865723,746.7810059,810.2838135z M804.1807861,445.2314453   c0.4348755,9.787262-5.1508789,19.7608643,3.0323486,27.145874c11.3295288,11.09021,19.5928955,24.5100403,20.5966797,40.3696289   c0.703125,11.1092529,4.7072754,19.2487183,11.1027832,27.9474487   c8.1179199,11.0415039,13.9293213,23.7787476,20.0732422,34.6169434   C867.6090698,524.8723755,845.5921631,470.4770508,804.1807861,445.2314453z M132.8646393,401.1800232   c36.9285431-50.8315125,81.8237152-96.8240356,130.690567-136.8373413   C210.2723694,275.0120544,142.0344391,347.0830383,132.8646393,401.1800232z M797.5755615,300.2347107   c-10.9332275,22.4685669,7.7824707,36.1643066,5.1970825,57.6537781   c1.0276489,5.4902649,17.5557251,11.3899231,22.213562,16.4405823   c9.0684814,7.6592102,17.3178711,16.2879333,25.2458496,23.8692322   C845.2451172,360.7905273,821.6787109,316.5004883,797.5755615,300.2347107z M225.2754974,411.4017944   c-51.5420837,40.4048157-72.2164154,112.932312-70.0848236,151.7991943   C173.7990875,512.0477295,198.4473877,458.8204346,225.2754974,411.4017944z"/><path d="M316.4694214,699.4622803c-81.6278381-67.8781738-96.1784058-150.2957153-59.4665222-230.6935425   C258.0415039,550.0811157,283.9915161,625.0033569,316.4694214,699.4622803z"/><path d="M645.7125854,460.9511719c-10.1132812-26.7008667-28.1851196-48.4367371-49.8633423-66.526062   c-9.343811-8.3085327-20.9442749-10.1579285-32.9971924-10.2575684   c-10.5140381-0.0869141-21.5698242-2.0865173-26.2088013-11.8547058   c-12.3747559-26.2786255-29.8263245-9.8258057-40.9726257-40.2207031   c24.5688171,22.1069641,54.1123962,1.2438049,80.400238,15.8909607   c0.178894-23.2036438,7.4743042-36.9738464,21.9413452-42.1335449   C565.9017944,376.5804138,650.2319336,378.2633972,645.7125854,460.9511719z"/><path d="M484.4569092,683.9058838c73.2393188,19.7198486,103.9811401,97.6533203,75.3104248,141.0878296   C552.0720215,776.4498291,531.0049438,708.5423584,484.4569092,683.9058838z"/><path d="M694.1243286,561.2749023c-10.088623,7.2888184-21.6789551,9.723938-33.7374878,9.6617432   c-52.5065308,3.1242065-101.7824097-46.8920288-73.9509888-97.710907   C574.1913452,523.9746704,641.3373413,561.4317627,694.1243286,561.2749023z"/><path d="M683.0971069,594.6626587c-42.538208,30.4473877-122.9980469-2.9760132-109.8634033-59.3242188   C597.7279053,576.3331299,635.4140015,593.5493774,683.0971069,594.6626587z"/><path d="M677.991333,376.0780945c-2.9694214-33.3204346-10.6791992-64.5854797-35.9012451-89.8716736   C682.0422363,290.8181458,691.8068848,347.5657349,677.991333,376.0780945z"/></g><text x="0" y="1015" fill="#000000" font-size="5px" font-weight="bold" font-family="'Helvetica Neue', Helvetica, Arial-Unicode, Arial, Sans-serif">Created by Brad</text><text x="0" y="1020" fill="#000000" font-size="5px" font-weight="bold" font-family="'Helvetica Neue', Helvetica, Arial-Unicode, Arial, Sans-serif">from the Noun Project</text></svg>